<mxfile host="Electron" agent="Mozilla/5.0 (Macintosh; Intel Mac OS X 10_15_7) AppleWebKit/537.36 (KHTML, like Gecko) draw.io/24.7.17 Chrome/128.0.6613.36 Electron/32.0.1 Safari/537.36" version="24.7.17">
  <diagram name="Страница — 1" id="mTMPOYzORja2uFlswyFQ">
    <mxGraphModel dx="2283" dy="798" grid="1" gridSize="10" guides="1" tooltips="1" connect="1" arrows="1" fold="1" page="1" pageScale="1" pageWidth="1169" pageHeight="827" math="0" shadow="0">
      <root>
        <mxCell id="0" />
        <mxCell id="1" parent="0" />
        <mxCell id="VIoggCkv6tHKB63BQBM0-20" value="SendVideoStream()" style="edgeStyle=orthogonalEdgeStyle;rounded=0;orthogonalLoop=1;jettySize=auto;html=1;" parent="1" source="VIoggCkv6tHKB63BQBM0-1" target="VIoggCkv6tHKB63BQBM0-3" edge="1">
          <mxGeometry relative="1" as="geometry" />
        </mxCell>
        <mxCell id="VIoggCkv6tHKB63BQBM0-11" value="Alarm()" style="edgeStyle=orthogonalEdgeStyle;rounded=0;orthogonalLoop=1;jettySize=auto;html=1;" parent="1" source="VIoggCkv6tHKB63BQBM0-3" target="VIoggCkv6tHKB63BQBM0-4" edge="1">
          <mxGeometry relative="1" as="geometry" />
        </mxCell>
        <mxCell id="VIoggCkv6tHKB63BQBM0-3" value="Распознать событие" style="rounded=1;whiteSpace=wrap;html=1;" parent="1" vertex="1">
          <mxGeometry x="330" y="270" width="120" height="60" as="geometry" />
        </mxCell>
        <mxCell id="VIoggCkv6tHKB63BQBM0-12" value="MakeMessage" style="edgeStyle=orthogonalEdgeStyle;rounded=0;orthogonalLoop=1;jettySize=auto;html=1;" parent="1" source="VIoggCkv6tHKB63BQBM0-4" target="VIoggCkv6tHKB63BQBM0-5" edge="1">
          <mxGeometry relative="1" as="geometry" />
        </mxCell>
        <mxCell id="VIoggCkv6tHKB63BQBM0-4" value="Отфильтровать действующие события" style="rounded=1;whiteSpace=wrap;html=1;" parent="1" vertex="1">
          <mxGeometry x="615" y="270" width="120" height="60" as="geometry" />
        </mxCell>
        <mxCell id="VIoggCkv6tHKB63BQBM0-13" value="SendAlarm()" style="edgeStyle=orthogonalEdgeStyle;rounded=0;orthogonalLoop=1;jettySize=auto;html=1;" parent="1" source="VIoggCkv6tHKB63BQBM0-5" target="VIoggCkv6tHKB63BQBM0-6" edge="1">
          <mxGeometry relative="1" as="geometry" />
        </mxCell>
        <mxCell id="VIoggCkv6tHKB63BQBM0-17" value="" style="edgeStyle=orthogonalEdgeStyle;rounded=0;orthogonalLoop=1;jettySize=auto;html=1;" parent="1" source="VIoggCkv6tHKB63BQBM0-5" target="VIoggCkv6tHKB63BQBM0-16" edge="1">
          <mxGeometry relative="1" as="geometry" />
        </mxCell>
        <mxCell id="VIoggCkv6tHKB63BQBM0-21" style="edgeStyle=orthogonalEdgeStyle;rounded=0;orthogonalLoop=1;jettySize=auto;html=1;" parent="1" source="VIoggCkv6tHKB63BQBM0-5" target="VIoggCkv6tHKB63BQBM0-18" edge="1">
          <mxGeometry relative="1" as="geometry" />
        </mxCell>
        <mxCell id="VIoggCkv6tHKB63BQBM0-5" value="Сформировать сообщение" style="rounded=1;whiteSpace=wrap;html=1;" parent="1" vertex="1">
          <mxGeometry x="920" y="270" width="120" height="60" as="geometry" />
        </mxCell>
        <mxCell id="VIoggCkv6tHKB63BQBM0-6" value="Отправить сообщение" style="rounded=1;whiteSpace=wrap;html=1;" parent="1" vertex="1">
          <mxGeometry x="1300" y="270" width="120" height="60" as="geometry" />
        </mxCell>
        <mxCell id="LP7gV7puTRZCwfi1a2go-28" value="" style="edgeStyle=orthogonalEdgeStyle;rounded=0;orthogonalLoop=1;jettySize=auto;html=1;" parent="1" source="VIoggCkv6tHKB63BQBM0-16" target="LP7gV7puTRZCwfi1a2go-27" edge="1">
          <mxGeometry relative="1" as="geometry" />
        </mxCell>
        <mxCell id="VIoggCkv6tHKB63BQBM0-16" value="Создать ссылки на фрагменты видео" style="whiteSpace=wrap;html=1;rounded=1;" parent="1" vertex="1">
          <mxGeometry x="920" y="384" width="120" height="60" as="geometry" />
        </mxCell>
        <mxCell id="VIoggCkv6tHKB63BQBM0-18" value="Запросить дополнительные связанные данные" style="whiteSpace=wrap;html=1;rounded=1;" parent="1" vertex="1">
          <mxGeometry x="920" y="160" width="120" height="60" as="geometry" />
        </mxCell>
        <mxCell id="LP7gV7puTRZCwfi1a2go-10" value="TryConnectToCamera()" style="edgeStyle=orthogonalEdgeStyle;rounded=0;orthogonalLoop=1;jettySize=auto;html=1;startArrow=classic;startFill=1;endArrow=none;endFill=0;" parent="1" source="LP7gV7puTRZCwfi1a2go-1" target="LP7gV7puTRZCwfi1a2go-13" edge="1">
          <mxGeometry relative="1" as="geometry">
            <mxPoint x="-170" y="360" as="targetPoint" />
          </mxGeometry>
        </mxCell>
        <mxCell id="LP7gV7puTRZCwfi1a2go-1" value="Видео" style="swimlane;startSize=0;" parent="1" vertex="1">
          <mxGeometry x="-30" y="100" width="200" height="360" as="geometry">
            <mxRectangle x="90" y="260" width="50" height="40" as="alternateBounds" />
          </mxGeometry>
        </mxCell>
        <mxCell id="LP7gV7puTRZCwfi1a2go-15" value="Сохранить видео в репозиторий" style="rounded=1;whiteSpace=wrap;html=1;" parent="LP7gV7puTRZCwfi1a2go-1" vertex="1">
          <mxGeometry x="40" y="254" width="120" height="60" as="geometry" />
        </mxCell>
        <mxCell id="VIoggCkv6tHKB63BQBM0-1" value="Получить видео" style="rounded=1;whiteSpace=wrap;html=1;" parent="LP7gV7puTRZCwfi1a2go-1" vertex="1">
          <mxGeometry x="40" y="130" width="120" height="60" as="geometry" />
        </mxCell>
        <mxCell id="LP7gV7puTRZCwfi1a2go-16" style="edgeStyle=orthogonalEdgeStyle;rounded=0;orthogonalLoop=1;jettySize=auto;html=1;exitX=0.5;exitY=1;exitDx=0;exitDy=0;" parent="LP7gV7puTRZCwfi1a2go-1" source="VIoggCkv6tHKB63BQBM0-1" target="LP7gV7puTRZCwfi1a2go-15" edge="1">
          <mxGeometry relative="1" as="geometry" />
        </mxCell>
        <mxCell id="8rkEr_qA0QAVmo6JCAGn-8" style="edgeStyle=orthogonalEdgeStyle;rounded=0;orthogonalLoop=1;jettySize=auto;html=1;" parent="LP7gV7puTRZCwfi1a2go-1" source="8rkEr_qA0QAVmo6JCAGn-4" target="VIoggCkv6tHKB63BQBM0-1" edge="1">
          <mxGeometry relative="1" as="geometry" />
        </mxCell>
        <mxCell id="8rkEr_qA0QAVmo6JCAGn-4" value="Настроить источники" style="rounded=1;whiteSpace=wrap;html=1;" parent="LP7gV7puTRZCwfi1a2go-1" vertex="1">
          <mxGeometry x="40" y="20" width="120" height="60" as="geometry" />
        </mxCell>
        <mxCell id="LP7gV7puTRZCwfi1a2go-4" value="Распознавание" style="swimlane;startSize=0;" parent="1" vertex="1">
          <mxGeometry x="310" y="260" width="180" height="200" as="geometry" />
        </mxCell>
        <mxCell id="LP7gV7puTRZCwfi1a2go-5" value="Фильтрация" style="swimlane;startSize=0;" parent="1" vertex="1">
          <mxGeometry x="597.5" y="240" width="155" height="220" as="geometry" />
        </mxCell>
        <mxCell id="LP7gV7puTRZCwfi1a2go-11" value="Настроить фильтр" style="rounded=1;whiteSpace=wrap;html=1;" parent="LP7gV7puTRZCwfi1a2go-5" vertex="1">
          <mxGeometry x="15" y="120" width="120" height="50" as="geometry" />
        </mxCell>
        <mxCell id="LP7gV7puTRZCwfi1a2go-6" value="Формирование сообщений" style="swimlane;startSize=0;" parent="1" vertex="1">
          <mxGeometry x="900" y="135" width="170" height="485" as="geometry" />
        </mxCell>
        <mxCell id="LP7gV7puTRZCwfi1a2go-27" value="Сохранить отрывок в репозиторий" style="whiteSpace=wrap;html=1;rounded=1;" parent="LP7gV7puTRZCwfi1a2go-6" vertex="1">
          <mxGeometry x="20" y="389" width="120" height="60" as="geometry" />
        </mxCell>
        <mxCell id="LP7gV7puTRZCwfi1a2go-18" value="SMS,Telegram,Application" style="edgeStyle=orthogonalEdgeStyle;rounded=0;orthogonalLoop=1;jettySize=auto;html=1;" parent="1" source="LP7gV7puTRZCwfi1a2go-7" target="LP7gV7puTRZCwfi1a2go-17" edge="1">
          <mxGeometry relative="1" as="geometry" />
        </mxCell>
        <mxCell id="LP7gV7puTRZCwfi1a2go-7" value="Отправка сообщений" style="swimlane;startSize=0;" parent="1" vertex="1">
          <mxGeometry x="1290" y="260" width="150" height="200" as="geometry" />
        </mxCell>
        <mxCell id="LP7gV7puTRZCwfi1a2go-12" value="" style="edgeStyle=orthogonalEdgeStyle;rounded=0;orthogonalLoop=1;jettySize=auto;html=1;" parent="1" source="LP7gV7puTRZCwfi1a2go-11" target="VIoggCkv6tHKB63BQBM0-4" edge="1">
          <mxGeometry relative="1" as="geometry" />
        </mxCell>
        <mxCell id="LP7gV7puTRZCwfi1a2go-13" value="Камера" style="shape=umlActor;verticalLabelPosition=bottom;verticalAlign=top;html=1;outlineConnect=0;" parent="1" vertex="1">
          <mxGeometry x="-210" y="330" width="30" height="60" as="geometry" />
        </mxCell>
        <mxCell id="LP7gV7puTRZCwfi1a2go-29" style="edgeStyle=orthogonalEdgeStyle;rounded=0;orthogonalLoop=1;jettySize=auto;html=1;curved=1;" parent="1" source="LP7gV7puTRZCwfi1a2go-17" target="LP7gV7puTRZCwfi1a2go-27" edge="1">
          <mxGeometry relative="1" as="geometry">
            <Array as="points">
              <mxPoint x="1645" y="480" />
              <mxPoint x="980" y="480" />
            </Array>
          </mxGeometry>
        </mxCell>
        <mxCell id="LP7gV7puTRZCwfi1a2go-30" value="GetVdeoStream()" style="edgeStyle=orthogonalEdgeStyle;rounded=0;orthogonalLoop=1;jettySize=auto;html=1;curved=1;" parent="1" source="LP7gV7puTRZCwfi1a2go-17" target="VIoggCkv6tHKB63BQBM0-1" edge="1">
          <mxGeometry relative="1" as="geometry">
            <Array as="points">
              <mxPoint x="1645" y="80" />
              <mxPoint x="70" y="80" />
            </Array>
          </mxGeometry>
        </mxCell>
        <mxCell id="8rkEr_qA0QAVmo6JCAGn-1" value="" style="edgeStyle=orthogonalEdgeStyle;rounded=0;orthogonalLoop=1;jettySize=auto;html=1;curved=1;" parent="1" source="YGqHUhwgtUidW-MUnB5Q-2" target="LP7gV7puTRZCwfi1a2go-11" edge="1">
          <mxGeometry relative="1" as="geometry">
            <Array as="points">
              <mxPoint x="675" y="690" />
            </Array>
          </mxGeometry>
        </mxCell>
        <mxCell id="LP7gV7puTRZCwfi1a2go-17" value="Клиент" style="shape=umlActor;verticalLabelPosition=bottom;verticalAlign=top;html=1;outlineConnect=0;" parent="1" vertex="1">
          <mxGeometry x="1630" y="330" width="30" height="60" as="geometry" />
        </mxCell>
        <mxCell id="LP7gV7puTRZCwfi1a2go-23" style="edgeStyle=orthogonalEdgeStyle;rounded=0;orthogonalLoop=1;jettySize=auto;html=1;curved=1;endArrow=none;endFill=0;startArrow=classic;startFill=1;" parent="1" source="LP7gV7puTRZCwfi1a2go-15" target="VIoggCkv6tHKB63BQBM0-16" edge="1">
          <mxGeometry relative="1" as="geometry">
            <mxPoint x="760" y="490" as="targetPoint" />
            <Array as="points">
              <mxPoint x="70" y="600" />
              <mxPoint x="980" y="600" />
            </Array>
          </mxGeometry>
        </mxCell>
        <mxCell id="8rkEr_qA0QAVmo6JCAGn-11" style="edgeStyle=orthogonalEdgeStyle;rounded=0;orthogonalLoop=1;jettySize=auto;html=1;" parent="1" source="8rkEr_qA0QAVmo6JCAGn-10" target="8rkEr_qA0QAVmo6JCAGn-4" edge="1">
          <mxGeometry relative="1" as="geometry" />
        </mxCell>
        <mxCell id="8rkEr_qA0QAVmo6JCAGn-10" value="Администратор" style="shape=umlActor;verticalLabelPosition=bottom;verticalAlign=top;html=1;outlineConnect=0;" parent="1" vertex="1">
          <mxGeometry x="-110" y="40" width="30" height="60" as="geometry" />
        </mxCell>
        <mxCell id="YGqHUhwgtUidW-MUnB5Q-1" value="" style="edgeStyle=orthogonalEdgeStyle;rounded=0;orthogonalLoop=1;jettySize=auto;html=1;curved=1;" edge="1" parent="1" source="LP7gV7puTRZCwfi1a2go-17" target="YGqHUhwgtUidW-MUnB5Q-2">
          <mxGeometry relative="1" as="geometry">
            <Array as="points">
              <mxPoint x="1645" y="690" />
            </Array>
            <mxPoint x="1645" y="390" as="sourcePoint" />
            <mxPoint x="675" y="410" as="targetPoint" />
          </mxGeometry>
        </mxCell>
        <mxCell id="YGqHUhwgtUidW-MUnB5Q-2" value="Сохранить настройки" style="rounded=1;whiteSpace=wrap;html=1;" vertex="1" parent="1">
          <mxGeometry x="1020" y="650" width="120" height="60" as="geometry" />
        </mxCell>
      </root>
    </mxGraphModel>
  </diagram>
</mxfile>
